# xmcd CD database file
#
# Track frame offsets:
#	150
#	15692
#	33165
#	43903
#	61849
#	81591
#	101762
#	121508
#	139979
#	156310
#	175521
#	196188
#	216005
#	232449
#	256497
#	273255
#	291071
#	308021
#	328724
#
# Disc length: 4661 seconds
#
# Revision: 1
# Processed by: cddbd v1.5.1PL2 Copyright (c) Steve Scherf et al.
# Submitted via: CDex 1.51
#
DISCID=11123313
DTITLE=Faith Hill - Fireflies (China Edition)
DYEAR=1900
DGENRE=Country
TTITLE0=Sunshine And Summertime
TTITLE1=Mississippi Girl
TTITLE2=Dearly Beloved
TTITLE3=I Ain't Gonna Take It Anymore
TTITLE4=Stealing Kisses
TTITLE5=Fireflies
TTITLE6=Like We Never Loved At All
TTITLE7=I Want You
TTITLE8=The Lucky One
TTITLE9=If You Ask
TTITLE10=We've Got Nothing But Love To Prove
TTITLE11=You Stay With Me
TTITLE12=Wish for me
TTITLE13=Paris
TTITLE14=There you'll be
TTITLE15=Breathe
TTITLE16=Cry
TTITLE17=Back to you
TTITLE18=Free
EXTD=
EXTT0=
EXTT1=
EXTT2=
EXTT3=
EXTT4=
EXTT5=
EXTT6=
EXTT7=
EXTT8=
EXTT9=
EXTT10=
EXTT11=
EXTT12=
EXTT13=
EXTT14=
EXTT15=
EXTT16=
EXTT17=
EXTT18=
PLAYORDER=
